<svg width="16" height="16" viewBox="0 0 16 16" fill="none" xmlns="http://www.w3.org/2000/svg">
<path d="M8 1.33337C7.12452 1.33337 6.25761 1.50581 5.44877 1.84084C4.63993 2.17588 3.90501 2.66694 3.28595 3.286C2.03571 4.53624 1.33333 6.23193 1.33333 8.00004C1.33333 9.76815 2.03571 11.4638 3.28595 12.7141C3.90501 13.3331 4.63993 13.8242 5.44877 14.1592C6.25761 14.4943 7.12452 14.6667 8 14.6667C9.76811 14.6667 11.4638 13.9643 12.714 12.7141C13.9643 11.4638 14.6667 9.76815 14.6667 8.00004C14.6667 7.12456 14.4942 6.25766 14.1592 5.44882C13.8242 4.63998 13.3331 3.90505 12.714 3.286C12.095 2.66694 11.3601 2.17588 10.5512 1.84084C9.74238 1.50581 8.87547 1.33337 8 1.33337ZM10.8 10.8L7.33333 8.66671V4.66671H8.33333V8.13337L11.3333 9.93337L10.8 10.8Z" fill="#C4C4C4"/>
</svg>
